<svg width="28" height="22" viewBox="0 0 28 22" fill="none" xmlns="http://www.w3.org/2000/svg">
<g clip-path="url(#clip0_129_546)">
<path d="M14 4.07613C16.3407 4.06684 18.6366 4.65567 20.6223 5.77457C22.608 6.89347 24.2025 8.49676 25.2215 10.3992C24.4843 11.7723 23.4397 12.9924 22.1535 13.9825L23.9811 15.6024C25.7741 14.1772 27.1634 12.3855 28.0331 10.3768C26.622 7.16001 23.9076 4.54875 20.441 3.07345C16.9744 1.59814 13.0157 1.36943 9.36914 2.43378L11.4696 4.32994C12.3016 4.16973 13.1493 4.08471 14 4.07613Z" fill="#EFF0F5"/>
<path d="M12.6356 5.38989L15.2735 7.76383L16.9273 9.25687L19.557 11.6383C19.7806 10.8758 19.8056 10.0769 19.6299 9.30426C19.4541 8.53162 19.0825 7.80623 18.5442 7.18499C18.0058 6.56374 17.3154 6.06353 16.527 5.72359C15.7385 5.38365 14.8736 5.21321 14 5.22565C13.5393 5.22738 13.0807 5.28258 12.6356 5.38989ZM1.28175 1.63488L4.69699 4.71055C2.59507 6.19259 0.972862 8.15725 0 10.399C1.4586 13.7509 4.33233 16.4425 7.98907 17.8816C11.6458 19.3208 15.7861 19.3898 19.4991 18.0733L23.8488 22L25.635 20.38L3.0762 0L1.28175 1.63488ZM6.4997 6.34544L8.73243 8.35358C8.42306 8.98866 8.26528 9.67542 8.26934 10.3692C8.26692 11.2189 8.49804 12.0558 8.94198 12.805C9.38592 13.5542 10.0288 14.1923 10.8131 14.662C11.5973 15.1318 12.4984 15.4186 13.4356 15.4967C14.3728 15.5748 15.3168 15.4418 16.1831 15.1096L16.2327 15.1544L17.4814 16.2816C16.3421 16.5664 15.1656 16.712 13.9835 16.7146C11.6462 16.7179 9.35518 16.1273 7.37224 15.0105C5.38929 13.8936 3.79451 12.2956 2.77023 10.399C3.64486 8.80298 4.92228 7.41454 6.4997 6.34544Z" fill="#EFF0F5"/>
</g>
<defs>
<clipPath id="clip0_129_546">
<rect width="28" height="22" fill="white"/>
</clipPath>
</defs>
</svg>
