<svg width="28" height="22" viewBox="0 0 28 22" fill="none" xmlns="http://www.w3.org/2000/svg">
<g clip-path="url(#clip0_110_124)">
<path d="M13.5969 0H14.098C14.3896 0 14.6692 0.114089 14.8753 0.317169C15.0815 0.520248 15.1973 0.795683 15.1973 1.08288V3.74231H12.4976V1.08288C12.4976 0.795683 12.6134 0.520248 12.8195 0.317169C13.0257 0.114089 13.3053 0 13.5969 0Z" fill="#EFF0F5"/>
<path d="M20.9772 2.42411L21.4245 2.64662C21.6848 2.77607 21.8822 3.00205 21.9733 3.27487C22.0644 3.54768 22.0418 3.84498 21.9104 4.10135L21.1161 5.65083L18.7061 4.45217L19.5113 2.88136C19.6465 2.63152 19.8756 2.44375 20.1496 2.35829C20.4236 2.27282 20.7206 2.29645 20.9772 2.42411Z" fill="#EFF0F5"/>
<path d="M6.61671 2.60879L7.07482 2.40862C7.34133 2.29218 7.64389 2.28479 7.91593 2.38809C8.18798 2.49138 8.40722 2.6969 8.52543 2.95943L9.23991 4.54614L6.77201 5.62444L6.04771 4.01589C5.937 3.75463 5.93457 3.46105 6.04092 3.19804C6.14727 2.93503 6.35396 2.72351 6.61671 2.60879Z" fill="#EFF0F5"/>
<path d="M14.001 21.9999C8.89249 21.9999 4.0426 19.3723 0.429441 14.6029C0.150587 14.2334 0 13.7853 0 13.3249C0 12.8645 0.150587 12.4164 0.429441 12.0469C4.0426 7.27748 8.89249 4.6499 14.001 4.6499C19.1096 4.6499 23.9271 7.27748 27.5726 12.0469C27.852 12.4146 28.0031 12.8616 28.0031 13.3209C28.0031 13.7802 27.852 14.2272 27.5726 14.5949C23.919 19.3803 19.1015 21.9999 14.001 21.9999ZM2.32898 13.3209C5.56224 17.4613 9.66039 19.7386 14.001 19.7386C18.3417 19.7386 22.4802 17.4613 25.6731 13.3687C22.4398 9.22826 18.3336 6.95102 14.001 6.95102C9.66847 6.95102 5.52182 9.18845 2.32898 13.3209Z" fill="#EFF0F5"/>
<path d="M14.0011 10.8527C14.4983 10.8527 14.9843 10.998 15.3977 11.2701C15.8111 11.5422 16.1333 11.9289 16.3236 12.3814C16.5139 12.8339 16.5636 13.3318 16.4666 13.8121C16.3696 14.2925 16.1302 14.7337 15.7787 15.08C15.4271 15.4263 14.9792 15.6622 14.4915 15.7577C14.0039 15.8533 13.4984 15.8042 13.0391 15.6168C12.5797 15.4294 12.1871 15.112 11.9109 14.7048C11.6347 14.2976 11.4872 13.8188 11.4872 13.329C11.4872 12.6723 11.7521 12.0424 12.2235 11.578C12.695 11.1136 13.3344 10.8527 14.0011 10.8527ZM14.0011 9.26025C13.1842 9.26025 12.3856 9.49888 11.7063 9.94596C11.0271 10.393 10.4976 11.0285 10.185 11.772C9.87239 12.5154 9.7906 13.3335 9.94997 14.1228C10.1093 14.9121 10.5027 15.637 11.0804 16.2061C11.6581 16.7751 12.394 17.1626 13.1953 17.3196C13.9965 17.4766 14.827 17.396 15.5818 17.0881C16.3365 16.7801 16.9816 16.2586 17.4355 15.5895C17.8893 14.9204 18.1316 14.1337 18.1316 13.329C18.1316 12.2499 17.6964 11.215 16.9218 10.452C16.1472 9.68893 15.0966 9.26025 14.0011 9.26025Z" fill="#EFF0F5"/>
</g>
<defs>
<clipPath id="clip0_110_124">
<rect width="28" height="22" fill="white"/>
</clipPath>
</defs>
</svg>
